# xmcd CD database file
# Copyright (C) 1993-1998 Ti Kan
#
# Track frame offsets:
#	150
#	11250
#	23410
#	35995
#	47260
#	60397
#	71127
#	81220
#	93575
#	107897
#	120357
#	132922
#	142640
#	153867
#	166727
#	180275
#	192695
#	204447
#	217212
#	229577
#
# Disc length: 3213 seconds
#
# Revision: 0
# Processed by: cddbd v1.4b41PL1 Copyright (c) Steve Scherf et al.
# Submitted via: CDmax 1.5
#
DISCID=010c8b14
DTITLE=Guy Mitchell - Legends - Guy Mitchell
DYEAR=1900
DGENRE=
TTITLE0=Singing the Blues
TTITLE1=Feet Up
TTITLE2=Side by Side
TTITLE3=Call Rosie on the Phone
TTITLE4=My Shoes Keep Walkin' Back to You
TTITLE5=Sippin' Soda
TTITLE6=Rock-a-Billy
TTITLE7=The Cuff of My Shirt
TTITLE8=Sparrow in the Treetop
TTITLE9=My Heart Cries for You
TTITLE10=My Truly Truly Fair
TTITLE11=Knee Deep in the Blues
TTITLE12=Cloud Lucky Seven
TTITLE13=Music,  Music, Music
TTITLE14=She Wears Feathers
TTITLE15=The Roving Kind
TTITLE16=Pretty Little Black Eyed Suzie
TTITLE17=Pittsburgh Pennsylvania
TTITLE18=Chicka Boom
TTITLE19=Heartaches by the Number
EXTD=
EXTT0=
EXTT1=
EXTT2=
EXTT3=
EXTT4=
EXTT5=
EXTT6=
EXTT7=
EXTT8=
EXTT9=
EXTT10=
EXTT11=
EXTT12=
EXTT13=
EXTT14=
EXTT15=
EXTT16=
EXTT17=
EXTT18=
EXTT19=
PLAYORDER=
